<svg width="48" height="48" viewBox="0 0 48 48" fill="none" xmlns="http://www.w3.org/2000/svg">
  <rect width="48" height="48" rx="8" fill="#1D1D1F"/>
  <path d="M12 14H16V34H12V14Z" fill="white"/>
  <path d="M18 14H30C31.0609 14 32.0783 14.4214 32.8284 15.1716C33.5786 15.9217 34 16.9391 34 18V18C34 19.0609 33.5786 20.0783 32.8284 20.8284C32.0783 21.5786 31.0609 22 30 22H22V34H18V14Z" fill="white"/>
  <path d="M24 24H30C31.0609 24 32.0783 24.4214 32.8284 25.1716C33.5786 25.9217 34 26.9391 34 28V28C34 29.0609 33.5786 30.0783 32.8284 30.8284C32.0783 31.5786 31.0609 32 30 32H24V24Z" fill="white"/>
</svg>